<svg width="4033" height="523" viewBox="0 0 4033 523" fill="none" xmlns="http://www.w3.org/2000/svg">
    <path fill-rule="evenodd" clip-rule="evenodd" d="M114.746 234.503C29.8226 460.848 26.2956 469.065 13.3811 470.562C1.06106 471.995 0 473.841 0 493.877V515.642H127.72V493.553C127.72 471.607 127.612 471.465 110.63 471.465H93.545L126.335 380.656L336.817 378.015L352.62 421.652C361.31 445.651 368.423 466.674 368.423 468.377C368.423 470.076 361.791 471.465 353.686 471.465C339.494 471.465 338.949 472.285 338.949 493.553V515.642H555.09V493.553C555.09 473.468 554.014 471.465 543.217 471.465C533.766 471.465 529.723 467.204 523.406 450.603C519.044 439.127 479.406 333.656 435.328 216.218L355.179 2.69481L202.731 0L114.746 234.503ZM3045.63 19.8749C3045.63 34.0558 3047.68 39.5092 3053 39.5092C3057.05 39.5092 3064.79 43.9269 3070.19 49.3264C3079.69 58.8245 3080.01 65.6867 3080.01 259.414C3080.01 408.635 3078.51 461.186 3074.12 465.575C3070.88 468.814 3060.93 471.465 3052.01 471.465C3036.08 471.465 3035.8 471.838 3035.8 493.553V515.642H3148.79V493.553C3148.79 472.231 3148.27 471.465 3133.9 471.465C3125.7 471.465 3117.94 468.687 3116.63 465.29C3115.33 461.893 3114.85 387.479 3115.56 299.924L3116.86 140.739L3341.72 515.642H3448.44V292.62C3448.44 161.272 3450.39 64.4792 3453.18 57.1458C3455.87 50.0627 3463.29 43.3428 3470.37 41.5708C3481.03 38.8956 3482.82 35.6952 3482.82 19.3447V0.240521H3374.75V19.8749C3374.75 34.4828 3376.74 39.5092 3382.5 39.5092C3386.76 39.5092 3396.7 45.964 3404.6 53.857L3418.96 68.2048L3418.81 226.885C3418.68 352.672 3417.41 383.935 3412.66 377.706C3409.37 373.381 3361.51 286.686 3306.3 185.044L3205.93 0.240521H3045.63V19.8749ZM3673.87 13.7391C3671 21.1658 3632.55 123.323 3588.42 240.761C3544.29 358.199 3506.67 458.148 3504.8 462.875C3502.89 467.72 3496.3 471.465 3489.66 471.465C3479.01 471.465 3477.91 473.526 3477.91 493.553V515.642H3600.72V493.553C3600.72 472.113 3600.27 471.465 3585.45 471.465C3575.36 471.465 3570.93 469.389 3572.37 465.329C3573.57 461.957 3580.97 440.929 3588.81 418.604L3603.07 378.015L3814.22 380.656L3830.18 424.833C3838.96 449.131 3846.19 469.56 3846.24 470.238C3846.29 470.915 3838.6 471.465 3829.14 471.465C3812.04 471.465 3811.95 471.583 3811.95 493.553V515.642H4033V493.877C4033 473.841 4031.94 471.995 4019.62 470.562C4006.7 469.065 4003.18 460.852 3918.3 234.626L3830.36 0.240521H3679.07L3673.87 13.7391ZM766.319 152.407H810.53V118.807C810.53 71.0174 813.639 68.9607 885.83 68.9607H943.162V269.231C943.162 418.452 941.659 471.003 937.267 475.392C934.025 478.631 925.183 481.282 917.618 481.282C905.175 481.282 903.864 482.917 903.864 498.462V515.642H1105.27V498.806C1105.27 485.14 1103.2 481.67 1094.34 480.398C1072.17 477.218 1071.03 466.517 1070.96 261.623L1070.88 68.9607H1127.02C1196.46 68.9607 1198.6 70.4382 1198.6 118.395V152.407H1237.9V10.0577H766.319V152.407ZM1300.53 13.6851C1272.76 15.4277 1272.29 15.7026 1272.29 30.3154C1272.29 44.2853 1273.31 45.0805 1289.37 43.7011C1298.76 42.8912 1308.73 44.5111 1311.53 47.304C1314.91 50.6812 1316.18 122.121 1315.32 260.695L1314.04 469.011L1272.29 472.029V515.642H1468.78V498.462C1468.78 486.647 1466.53 481.282 1461.58 481.282C1457.63 481.282 1452.4 477.419 1449.97 472.692C1442.79 458.732 1438.93 388.058 1442.43 334.628L1445.7 284.939L1485.48 284.968C1537 285.002 1556.27 290.721 1577.07 312.147L1594.04 329.636L1596.5 401.778C1598.09 448.635 1601.24 477.934 1605.49 485.381C1617.69 506.782 1647.11 515.416 1708.25 515.534L1763.52 515.642V503.115C1763.52 493.745 1759.97 489.357 1749.46 485.69C1729.29 478.666 1723.77 461.888 1719.74 395.382C1715.8 330.372 1707.33 306.212 1680.63 283.76L1666.08 271.528L1688.11 256.012C1720.36 233.3 1736.19 196.859 1736.32 145.044C1736.44 95.0597 1725.85 66.4279 1697.66 40.4566C1682.48 26.472 1669.35 19.4576 1651.01 15.5259C1627.3 10.4455 1373.46 9.11034 1300.53 13.6851ZM1816.02 13.2237C1814.16 15.0841 1812.64 26.1726 1812.64 37.8747C1812.64 58.0588 1813.36 59.1436 1826.85 59.1436C1835.28 59.1436 1842.28 62.3047 1844.04 66.9089C1845.68 71.1794 1847.03 163.51 1847.03 272.088C1847.03 481.135 1847.01 481.282 1823.94 481.282C1814.3 481.282 1812.64 483.805 1812.64 498.462V515.642H1999.31V498.462C1999.31 483.476 1997.76 481.282 1987.2 481.282C1980.26 481.282 1972.92 477.232 1970.01 471.789C1966.74 465.697 1964.92 391.705 1964.92 265.304C1964.92 138.903 1966.74 64.9111 1970.01 58.8196C1972.97 53.2827 1980.26 49.3264 1987.5 49.3264C1998.83 49.3264 1999.77 47.7311 1998.37 30.9192L1996.85 12.512L1908.12 11.1769C1859.33 10.4455 1817.88 11.3634 1816.02 13.2237ZM2051.71 13.3317C2049.9 15.1283 2048.43 23.9637 2048.43 32.9661C2048.43 46.7199 2050.21 49.3264 2059.62 49.3264C2065.77 49.3264 2075.72 52.7673 2081.72 56.9691L2092.64 64.6068V267.057C2092.64 417.966 2091.14 470.999 2086.75 475.392C2083.5 478.631 2073.56 481.282 2064.64 481.282C2049.34 481.282 2048.43 482.259 2048.43 498.757V516.231L2458.61 513.188L2480.71 500.916C2515.3 481.719 2527.38 453.028 2527.38 390.11C2527.38 343.655 2526.48 339.203 2512.54 316.648C2504.38 303.444 2488.52 285.645 2477.3 277.095L2456.91 261.554L2474.72 249.93C2502.6 231.734 2517.22 198.135 2519.2 147.65C2521.97 77.1581 2495.74 28.5974 2447.69 15.2608C2427.25 9.59138 2057.25 7.78502 2051.71 13.3317ZM2539.66 29.692C2539.66 48.1287 2540.54 49.3264 2554.05 49.3264C2584.11 49.3264 2583.86 47.79 2583.98 234.974C2584.08 395.524 2584.66 406.456 2594.08 427.288C2613.37 469.914 2656.49 501.191 2716.5 516.084C2756.74 526.073 2845.72 525.052 2876.69 514.248C2909.85 502.683 2938.67 477.321 2954.32 445.945L2967.03 420.45V244.384C2967.03 132.404 2968.88 64.8572 2972.11 58.8196C2974.91 53.5969 2981.55 49.3264 2986.85 49.3264C2994.84 49.3264 2996.5 45.9346 2996.5 29.692V10.0577H2893.35V29.692C2893.35 45.8118 2895.04 49.3264 2902.82 49.3264C2908.03 49.3264 2915.77 52.7968 2920.01 57.0378C2926.72 63.7429 2927.73 86.0524 2927.73 227.042C2927.73 334.447 2925.84 395.657 2922.13 408.036C2908.85 452.312 2867.05 481.361 2816.88 481.174C2761.77 480.973 2723.3 450.24 2711.94 397.345C2704.28 361.621 2704.83 62.9575 2712.57 55.2167C2715.82 51.977 2723.55 49.3264 2729.77 49.3264C2739.67 49.3264 2741.06 46.9065 2741.06 29.692V10.0577H2539.66V29.692ZM1574.15 70.0652C1592.92 91.7758 1601.41 117.266 1601.41 151.906C1601.41 183.812 1592.41 205.616 1572.23 222.585C1556.93 235.445 1554.57 235.853 1495.42 235.853H1434.39V48.5263L1558.34 51.7807L1574.15 70.0652ZM2353.62 66.8304C2375.12 77.9385 2387.16 107.793 2387.16 149.952C2387.16 188.18 2375.33 221.628 2358.65 230.546C2352.89 233.629 2319.74 235.853 2279.63 235.853H2210.54V59.1436H2274.64C2323.22 59.1436 2342.35 61.0039 2353.62 66.8304ZM319.275 318.072C319.29 318.749 280.615 319.299 233.334 319.299C186.053 319.299 147.369 317.517 147.369 315.337C147.369 310.949 229.67 99.4283 234.273 91.9869C236.346 88.6343 319.064 308.652 319.275 318.072ZM3755.49 205.346L3795.3 316.844L3752.05 318.258C3728.26 319.034 3689.12 319.034 3665.09 318.258L3621.39 316.844L3665.88 202.695C3690.35 139.909 3711.57 89.7339 3713.03 91.1917C3714.49 92.6496 3733.6 144.018 3755.49 205.346ZM2367.47 301.986C2395.19 316.309 2413.58 379.856 2402.2 422.05C2399.02 433.885 2390.12 449.843 2382.45 457.515L2368.49 471.465H2210.54V294.756H2282.01C2335.34 294.756 2357.03 296.592 2367.47 301.986Z" fill="black"/>
</svg>
