<?xml version="1.0" encoding="UTF-8" standalone="no"?><svg xmlns="http://www.w3.org/2000/svg" xmlns:xlink="http://www.w3.org/1999/xlink" fill="#000000" height="270.8" preserveAspectRatio="xMidYMid meet" version="1" viewBox="46.6 77.2 332.0 270.8" width="332" zoomAndPan="magnify"><g><g id="change1_1"><path d="M 238.285156 241.609375 L 259.820312 222.53125 L 172.113281 191.046875 L 203.601562 278.738281 L 222.675781 257.214844 L 254.023438 288.5625 L 261.835938 280.757812 L 269.640625 272.960938 L 238.285156 241.609375" fill="#ffffff"/></g><g id="change2_1"><path d="M 238.285156 241.609375 L 239.28125 242.730469 L 260.816406 223.65625 C 261.210938 223.304688 261.394531 222.769531 261.292969 222.25 C 261.191406 221.726562 260.828125 221.300781 260.328125 221.121094 L 172.621094 189.636719 C 172.078125 189.441406 171.464844 189.578125 171.054688 189.988281 C 170.644531 190.394531 170.507812 191.011719 170.703125 191.554688 L 202.191406 279.246094 C 202.367188 279.746094 202.796875 280.113281 203.316406 280.210938 C 203.839844 280.3125 204.371094 280.132812 204.722656 279.734375 L 222.742188 259.402344 L 252.964844 289.621094 C 253.546875 290.207031 254.496094 290.207031 255.082031 289.621094 L 262.894531 281.820312 L 270.699219 274.019531 C 270.980469 273.738281 271.136719 273.359375 271.136719 272.960938 C 271.140625 272.558594 270.984375 272.183594 270.699219 271.898438 L 239.347656 240.546875 L 238.285156 241.609375 L 239.28125 242.730469 L 238.285156 241.609375 L 237.222656 242.667969 L 267.515625 272.960938 L 260.773438 279.695312 L 254.023438 286.441406 L 223.734375 256.152344 C 223.445312 255.863281 223.042969 255.703125 222.628906 255.714844 C 222.21875 255.726562 221.824219 255.910156 221.554688 256.21875 L 204.15625 275.847656 L 174.601562 193.535156 L 256.929688 223.089844 L 237.289062 240.484375 C 236.980469 240.757812 236.796875 241.152344 236.785156 241.5625 C 236.773438 241.976562 236.933594 242.378906 237.222656 242.667969 L 238.285156 241.609375" fill="#ffffff"/></g><g id="change1_2"><path d="M 356.628906 110.921875 C 351.484375 110.921875 347.328125 106.761719 347.328125 101.621094 C 347.328125 96.488281 351.484375 92.320312 356.628906 92.320312 C 361.765625 92.320312 365.925781 96.488281 365.925781 101.621094 C 365.925781 106.761719 361.765625 110.921875 356.628906 110.921875 Z M 356.632812 318.953125 C 356.632812 326.242188 350.71875 332.152344 343.429688 332.152344 L 81.769531 332.152344 C 74.480469 332.152344 68.570312 326.242188 68.570312 318.953125 L 68.570312 124.726562 L 356.632812 124.726562 Z M 305.785156 92.320312 C 310.929688 92.320312 315.089844 96.488281 315.089844 101.621094 C 315.089844 106.761719 310.929688 110.921875 305.785156 110.921875 C 300.652344 110.921875 296.488281 106.761719 296.488281 101.621094 C 296.488281 96.488281 300.652344 92.320312 305.785156 92.320312 Z M 331.210938 92.320312 C 336.351562 92.320312 340.511719 96.488281 340.511719 101.621094 C 340.511719 106.761719 336.351562 110.921875 331.210938 110.921875 C 326.074219 110.921875 321.910156 106.761719 321.910156 101.621094 C 321.910156 96.488281 326.074219 92.320312 331.210938 92.320312 Z M 362.210938 78.683594 L 62.988281 78.683594 C 54.777344 78.683594 48.109375 85.339844 48.109375 93.5625 L 48.109375 331.632812 C 48.109375 339.851562 54.777344 346.515625 62.988281 346.515625 L 362.210938 346.515625 C 370.429688 346.515625 377.089844 339.851562 377.089844 331.632812 L 377.089844 93.5625 C 377.089844 85.339844 370.429688 78.683594 362.210938 78.683594" fill="#ffffff"/></g><g id="change2_2"><path d="M 356.628906 110.921875 L 356.628906 109.421875 C 354.464844 109.421875 352.527344 108.550781 351.113281 107.140625 C 349.699219 105.722656 348.832031 103.78125 348.828125 101.621094 C 348.832031 99.460938 349.699219 97.523438 351.113281 96.105469 C 352.527344 94.691406 354.464844 93.820312 356.628906 93.820312 C 358.785156 93.820312 360.726562 94.691406 362.140625 96.105469 C 363.554688 97.523438 364.425781 99.464844 364.425781 101.621094 C 364.425781 103.78125 363.554688 105.722656 362.140625 107.140625 C 360.726562 108.550781 358.785156 109.421875 356.628906 109.421875 L 356.628906 112.421875 C 362.59375 112.421875 367.425781 107.589844 367.425781 101.621094 C 367.425781 95.660156 362.59375 90.820312 356.628906 90.820312 C 350.65625 90.820312 345.828125 95.660156 345.828125 101.621094 C 345.828125 104.597656 347.039062 107.308594 348.988281 109.257812 C 350.9375 111.210938 353.648438 112.421875 356.628906 112.421875 Z M 356.632812 318.953125 L 355.132812 318.953125 C 355.128906 322.1875 353.824219 325.101562 351.703125 327.226562 C 349.578125 329.34375 346.664062 330.652344 343.429688 330.652344 L 81.769531 330.652344 C 78.535156 330.652344 75.621094 329.347656 73.496094 327.226562 C 71.378906 325.101562 70.070312 322.1875 70.070312 318.953125 L 70.070312 126.226562 L 355.128906 126.226562 L 355.132812 318.953125 L 358.132812 318.953125 L 358.132812 124.726562 C 358.132812 124.332031 357.972656 123.945312 357.691406 123.667969 C 357.410156 123.386719 357.027344 123.226562 356.632812 123.226562 L 68.570312 123.226562 C 68.175781 123.226562 67.789062 123.386719 67.507812 123.667969 C 67.230469 123.945312 67.070312 124.332031 67.070312 124.726562 L 67.070312 318.953125 C 67.070312 327.070312 73.652344 333.652344 81.769531 333.652344 L 343.429688 333.652344 C 351.546875 333.652344 358.128906 327.070312 358.132812 318.953125 Z M 305.785156 92.320312 L 305.785156 93.820312 C 307.949219 93.820312 309.890625 94.691406 311.304688 96.105469 C 312.71875 97.523438 313.589844 99.464844 313.589844 101.621094 C 313.589844 103.78125 312.71875 105.722656 311.304688 107.136719 C 309.890625 108.550781 307.949219 109.421875 305.785156 109.421875 C 303.628906 109.421875 301.6875 108.550781 300.273438 107.136719 C 298.859375 105.722656 297.988281 103.78125 297.988281 101.621094 C 297.988281 99.464844 298.859375 97.523438 300.273438 96.105469 C 301.6875 94.691406 303.628906 93.820312 305.785156 93.820312 L 305.785156 90.820312 C 299.824219 90.820312 294.988281 95.65625 294.988281 101.621094 C 294.988281 107.589844 299.824219 112.421875 305.785156 112.421875 C 311.757812 112.421875 316.589844 107.589844 316.589844 101.621094 C 316.589844 95.65625 311.757812 90.820312 305.785156 90.820312 Z M 331.210938 92.320312 L 331.210938 93.820312 C 333.371094 93.820312 335.3125 94.691406 336.726562 96.105469 C 338.140625 97.523438 339.007812 99.460938 339.011719 101.621094 C 339.007812 103.78125 338.140625 105.722656 336.726562 107.140625 C 335.3125 108.550781 333.371094 109.421875 331.210938 109.421875 C 329.054688 109.421875 327.113281 108.550781 325.695312 107.136719 C 324.28125 105.722656 323.414062 103.78125 323.410156 101.621094 C 323.414062 99.464844 324.28125 97.523438 325.695312 96.105469 C 327.113281 94.691406 329.054688 93.820312 331.210938 93.820312 L 331.210938 90.820312 C 325.246094 90.820312 320.414062 95.65625 320.410156 101.621094 C 320.414062 107.589844 325.246094 112.421875 331.210938 112.421875 C 334.191406 112.421875 336.898438 111.210938 338.847656 109.257812 C 340.800781 107.308594 342.011719 104.597656 342.011719 101.621094 C 342.007812 95.660156 337.179688 90.820312 331.210938 90.820312 Z M 362.210938 78.683594 L 362.210938 77.183594 L 62.988281 77.183594 C 53.949219 77.183594 46.613281 84.511719 46.609375 93.5625 L 46.609375 331.632812 C 46.613281 340.679688 53.949219 348.015625 62.988281 348.015625 L 362.210938 348.015625 C 371.257812 348.015625 378.589844 340.679688 378.589844 331.632812 L 378.589844 93.5625 C 378.589844 84.511719 371.257812 77.183594 362.210938 77.183594 L 362.210938 80.183594 C 365.910156 80.183594 369.246094 81.675781 371.671875 84.101562 C 374.09375 86.527344 375.589844 89.859375 375.589844 93.5625 L 375.589844 331.632812 C 375.589844 335.332031 374.09375 338.667969 371.671875 341.097656 C 369.242188 343.519531 365.910156 345.015625 362.210938 345.015625 L 62.988281 345.015625 C 59.292969 345.015625 55.957031 343.519531 53.53125 341.097656 C 51.105469 338.667969 49.613281 335.332031 49.609375 331.632812 L 49.609375 93.5625 C 49.613281 89.859375 51.105469 86.527344 53.53125 84.101562 C 55.957031 81.675781 59.292969 80.183594 62.988281 80.183594 L 362.210938 80.183594 L 362.210938 78.683594" fill="#ffffff"/></g></g></svg>