<?xml version="1.0" encoding="UTF-8" standalone="no"?><svg xmlns="http://www.w3.org/2000/svg" xmlns:xlink="http://www.w3.org/1999/xlink" fill="#000000" height="209.4" preserveAspectRatio="xMidYMid meet" version="1" viewBox="0.0 0.0 445.4 209.4" width="445.4" zoomAndPan="magnify"><defs><clipPath id="a"><path d="M 0 48 L 445.398438 48 L 445.398438 209.390625 L 0 209.390625 Z M 0 48"/></clipPath><clipPath id="b"><path d="M 40 0 L 313 0 L 313 209.390625 L 40 209.390625 Z M 40 0"/></clipPath></defs><g><g clip-path="url(#a)" id="change1_1"><path d="M 231.003906 60.445312 C 260.367188 63.433594 286.722656 75.84375 314.792969 82.992188 C 348.804688 91.652344 381.628906 101.574219 417.578125 100.96875 C 422.40625 100.851562 442.5625 99.019531 445.402344 98.417969 C 406.929688 92.449219 368.835938 86.089844 331.324219 76.910156 C 296.101562 68.289062 261.238281 54.738281 224.78125 50.132812 C 199.492188 46.863281 176.484375 49.273438 149.726562 56.960938 C 92.949219 73.273438 40.8125 94.617188 0 134.796875 C 63.457031 91.875 144.648438 51.65625 231.003906 60.445312 Z M 278.183594 143.757812 C 237.050781 129.160156 129.585938 143.773438 77.84375 209.390625 C 77.84375 209.390625 181.855469 125.265625 287.644531 155.832031 C 379.65625 182.421875 434.703125 169.953125 434.703125 169.953125 L 418.945312 166.535156 C 418.945312 166.535156 330.941406 162.480469 278.183594 143.757812 Z M 67.757812 168.058594 C 119.496094 102.441406 233.878906 92.042969 275.425781 105.425781 C 331.421875 123.460938 404.859375 125.074219 404.859375 125.074219 L 424.613281 128.621094 C 424.613281 128.621094 385.535156 140.308594 277.554688 114.5 C 170.460938 88.902344 67.757812 168.058594 67.757812 168.058594" fill="#fffdfd"/></g><g id="change2_1"><path d="M 198.5625 61.796875 C 198.5625 61.796875 196.542969 77.660156 187.753906 81.097656 C 187.753906 81.097656 197.933594 85.949219 198.667969 96.242188 C 198.71875 96.914062 202.132812 82.378906 210.429688 80.175781 C 210.429688 80.175781 199.769531 76.394531 198.5625 61.796875 Z M 317.316406 90.378906 C 317.21875 89.019531 310.300781 118.4375 293.507812 122.902344 C 293.507812 122.902344 315.085938 130.554688 317.527344 160.101562 C 317.527344 160.101562 321.566406 130.128906 336.660156 125.878906 C 336.660156 125.878906 318.804688 111.210938 317.316406 90.378906 Z M 246.148438 160.101562 L 255.117188 152.078125 L 269.253906 24.890625 L 264.085938 13.140625 Z M 144.519531 27.046875 L 154.667969 92.164062 L 164.8125 88.851562 L 151.976562 24.136719 Z M 54.617188 48.652344 L 60.78125 134.835938 L 65.949219 129.386719 L 63.660156 48.75 Z M 98.3125 100.726562 C 96.160156 99.199219 92.257812 98.300781 89.84375 99.65625 C 89.082031 99.703125 88.351562 99.980469 87.730469 100.601562 C 84.539062 103.808594 84.671875 108.789062 87.984375 111.84375 C 91.660156 115.234375 97.464844 115.503906 100.953125 111.753906 C 104.273438 108.1875 101.691406 103.121094 98.3125 100.726562 Z M 394.933594 159.25 C 391.441406 162.996094 385.640625 162.730469 381.964844 159.339844 C 378.652344 156.285156 378.519531 151.304688 381.710938 148.097656 C 382.332031 147.472656 383.058594 147.199219 383.824219 147.152344 C 386.238281 145.796875 390.140625 146.695312 392.292969 148.222656 C 395.671875 150.617188 398.253906 155.683594 394.933594 159.25" fill="#f89a2e"/></g><g clip-path="url(#b)" id="change3_1"><path d="M 188.308594 182.8125 C 183.859375 182.167969 179.277344 184.234375 176.253906 187.5625 C 173.226562 190.886719 171.628906 195.320312 171.0625 199.78125 C 170.828125 201.628906 170.765625 203.546875 171.347656 205.316406 C 171.929688 207.085938 173.257812 208.695312 175.050781 209.203125 C 176.25 209.546875 177.546875 209.375 178.742188 209.011719 C 182.085938 208.003906 184.871094 205.585938 186.890625 202.734375 C 188.910156 199.882812 190.234375 196.609375 191.414062 193.320312 C 192.113281 191.367188 192.777344 189.289062 192.363281 187.257812 C 191.949219 185.226562 190.347656 182.441406 188.308594 182.8125 Z M 310.132812 11.207031 C 307.796875 7.355469 303.800781 4.507812 299.425781 2.65625 C 289.457031 -1.558594 277.117188 -0.695312 267.976562 4.859375 C 265.175781 6.558594 262.519531 8.898438 261.957031 11.921875 C 262.453125 14.652344 263.445312 15.789062 265.113281 18.101562 C 268.636719 22.972656 274.179688 26.464844 280.214844 28.402344 C 286.253906 30.339844 292.765625 30.800781 299.152344 30.441406 C 303.171875 30.21875 307.597656 29.464844 310.046875 26.550781 C 310.992188 25.421875 311.554688 24.058594 311.902344 22.675781 C 312.871094 18.828125 312.226562 14.660156 310.132812 11.207031 Z M 170.636719 79.40625 C 168.457031 76.855469 165.210938 75.914062 162.015625 76.210938 C 161.769531 76.109375 161.5 76.027344 161.183594 76.007812 C 153.992188 75.519531 148.566406 79.902344 144.113281 85.050781 C 140.191406 89.582031 137.007812 94.695312 134.59375 100.179688 C 132.15625 105.730469 130.613281 111.679688 129.960938 117.703125 C 129.390625 122.96875 128.6875 130.398438 132.144531 134.851562 C 135.863281 139.640625 143.054688 138.515625 147.964844 136.527344 C 153.113281 134.4375 157.882812 130.714844 161.605469 126.632812 C 168.984375 118.542969 173.433594 108.140625 174.277344 97.21875 C 174.730469 91.382812 174.636719 84.085938 170.636719 79.40625 Z M 79.125 127.058594 C 79.878906 130.75 78.671875 134.535156 77.398438 138.082031 C 75.25 144.054688 72.84375 150.011719 69.175781 155.195312 C 65.503906 160.378906 60.441406 164.777344 54.363281 166.609375 C 52.1875 167.265625 49.832031 167.578125 47.648438 166.960938 C 44.390625 166.03125 41.976562 163.105469 40.917969 159.890625 C 39.859375 156.671875 39.972656 153.1875 40.398438 149.828125 C 41.425781 141.71875 44.335938 133.65625 49.835938 127.609375 C 55.335938 121.566406 63.664062 117.808594 71.753906 118.980469 C 75.460938 118.304688 78.371094 123.367188 79.125 127.058594" fill="#a10c1a"/></g><g id="change4_1"><path d="M 181.734375 130.09375 C 182.800781 132.15625 184.835938 167.71875 185.066406 182.804688 C 186.140625 182.660156 187.226562 182.65625 188.308594 182.8125 C 190.347656 182.441406 191.949219 185.226562 192.363281 187.257812 L 188.449219 135.648438 C 202.691406 135.390625 216.160156 130.09375 216.160156 130.09375 L 218.894531 145.292969 L 223.691406 144.75 L 224.574219 121.929688 C 212.796875 123.21875 180.386719 127.492188 181.734375 130.09375 Z M 148.042969 0.742188 L 154.667969 19.742188 C 154.667969 19.742188 151.976562 44.726562 48.695312 52.9375 L 51.421875 43.203125 C 51.421875 43.203125 114.386719 36.339844 148.042969 0.742188" fill="#eaa41c"/></g></g></svg>