<?xml version="1.0" encoding="UTF-8" standalone="no"?><svg xmlns="http://www.w3.org/2000/svg" xmlns:xlink="http://www.w3.org/1999/xlink" fill="#ffffff" height="4799.5" preserveAspectRatio="xMidYMid meet" version="1" viewBox="0.0 -0.0 4799.5 4799.5" width="4799.5" zoomAndPan="magnify"><defs><clipPath id="a"/></defs><g><g clip-path="url(#a)" id="change1_1"><path d="M 0 4799.519531 L 4799.53125 4799.519531 L 4799.53125 -0.0117188 L 0 -0.0117188 L 0 4799.519531" fill="inherit" fill-rule="evenodd"/></g><g id="change2_1"><path d="M 2496.976562 1528.347656 L 1837.320312 1528.347656 L 1837.320312 1850.9375 L 2496.976562 1850.9375 Z M 1833.300781 1453.359375 L 2500.980469 1453.359375 C 2520.441406 1453.359375 2538.15625 1461.34375 2551.007812 1474.175781 L 2551.152344 1474.175781 C 2564 1487.023438 2571.964844 1504.78125 2571.964844 1524.347656 L 2571.964844 1854.9375 C 2571.964844 1874.503906 2564 1892.257812 2551.152344 1905.109375 L 2551.007812 1905.109375 C 2538.15625 1917.941406 2520.441406 1925.925781 2500.980469 1925.925781 L 1833.300781 1925.925781 C 1813.851562 1925.925781 1796.140625 1917.941406 1783.289062 1905.109375 L 1783.140625 1905.109375 C 1770.300781 1892.257812 1762.320312 1874.503906 1762.320312 1854.9375 L 1762.320312 1524.347656 C 1762.320312 1504.78125 1770.300781 1487.023438 1783.140625 1474.175781 C 1795.980469 1461.34375 1813.742188 1453.359375 1833.300781 1453.359375" fill="#ffffff"/></g><g id="change2_2"><path d="M 1799.816406 2122.761719 C 1779.105469 2122.761719 1762.316406 2139.550781 1762.316406 2160.253906 C 1762.316406 2180.953125 1779.105469 2197.761719 1799.816406 2197.761719 L 2999.6875 2197.761719 C 3020.40625 2197.761719 3037.195312 2180.953125 3037.195312 2160.253906 C 3037.195312 2139.550781 3020.40625 2122.761719 2999.6875 2122.761719 L 1799.816406 2122.761719" fill="#ffffff"/></g><g id="change2_3"><path d="M 1799.816406 2409.847656 C 1779.113281 2409.847656 1762.320312 2426.652344 1762.320312 2447.351562 C 1762.320312 2468.054688 1779.113281 2484.839844 1799.816406 2484.839844 L 2848.914062 2484.839844 C 2869.632812 2484.839844 2886.421875 2468.054688 2886.421875 2447.351562 C 2886.421875 2426.652344 2869.632812 2409.847656 2848.914062 2409.847656 L 1799.816406 2409.847656" fill="#ffffff"/></g><g id="change2_4"><path d="M 1799.820312 2696.960938 C 1779.105469 2696.960938 1762.316406 2713.75 1762.316406 2734.464844 C 1762.316406 2755.160156 1779.105469 2771.949219 1799.820312 2771.949219 L 2757.539062 2771.949219 C 2778.253906 2771.949219 2795.042969 2755.160156 2795.042969 2734.464844 C 2795.042969 2713.75 2778.253906 2696.960938 2757.539062 2696.960938 L 1799.820312 2696.960938" fill="#ffffff"/></g><g id="change2_5"><path d="M 1799.824219 2984.058594 C 1779.109375 2984.058594 1762.324219 3000.84375 1762.324219 3021.558594 C 1762.324219 3042.253906 1779.109375 3059.054688 1799.824219 3059.054688 L 2595.996094 3059.054688 C 2616.707031 3059.054688 2633.492188 3042.253906 2633.492188 3021.558594 C 2633.492188 3000.84375 2616.707031 2984.058594 2595.996094 2984.058594 L 1799.824219 2984.058594" fill="#ffffff"/></g><g id="change2_6"><path d="M 1799.820312 3271.15625 C 1779.121094 3271.15625 1762.332031 3287.949219 1762.332031 3308.65625 C 1762.332031 3329.359375 1779.121094 3346.15625 1799.820312 3346.15625 L 2583.925781 3346.15625 C 2604.625 3346.15625 2621.414062 3329.359375 2621.414062 3308.65625 C 2621.414062 3287.949219 2604.625 3271.15625 2583.925781 3271.15625 L 1799.820312 3271.15625" fill="#ffffff"/></g><g id="change2_7"><path d="M 3287.34375 909.78125 L 1512.179688 909.78125 L 1512.179688 3889.738281 L 3287.34375 3889.738281 Z M 2646.429688 792.347656 C 2667.121094 792.347656 2683.917969 775.574219 2683.917969 754.859375 C 2683.917969 734.144531 2667.121094 717.371094 2646.429688 717.371094 L 2153.097656 717.371094 C 2132.398438 717.371094 2115.609375 734.144531 2115.609375 754.859375 C 2115.609375 775.574219 2132.398438 792.347656 2153.097656 792.347656 Z M 2399.757812 4001.96875 C 2328.707031 4001.96875 2271.109375 4021.089844 2271.109375 4044.660156 C 2271.109375 4068.238281 2328.707031 4087.359375 2399.757812 4087.359375 C 2470.808594 4087.359375 2528.410156 4068.238281 2528.410156 4044.660156 C 2528.410156 4021.089844 2470.808594 4001.96875 2399.757812 4001.96875 Z M 1570.890625 599.9375 L 3228.628906 599.9375 C 3358.890625 599.9375 3465.425781 706.5 3465.425781 836.765625 L 3465.425781 3962.769531 C 3465.425781 4093.019531 3358.890625 4199.582031 3228.628906 4199.582031 L 1570.890625 4199.582031 C 1440.640625 4199.582031 1334.082031 4093.019531 1334.082031 3962.769531 L 1334.082031 836.765625 C 1334.082031 706.5 1440.640625 599.9375 1570.890625 599.9375" fill="#ffffff" fill-rule="evenodd"/></g></g></svg>