<svg version="1.2" xmlns="http://www.w3.org/2000/svg" viewBox="0 0 1596 1516" width="1596" height="1516">
	<title>SAN_BIG copy-svg</title>
	<style>
		.s0 { fill: #ec0000 } 
	</style>
	<path id="Layer" fill-rule="evenodd" class="s0" d="m1595.3 1084.1c0 238.7-357.1 431.8-797.9 431.8-440.8 0-797.4-193.1-797.4-431.8 0-172.2 183.9-319.7 451.5-390q-1.6 24.7 1.1 49.3 2.1 24.2 8 48.3 5.4 23.6 15 46.7 9.2 22.5 21.5 44l249.3 436.1q7 12.3 12.9 24.6 6.5 12.9 11.3 25.8 4.8 12.9 8.6 26.3 3.7 13.4 6.4 27.3l10.7-18.2c15-26.3 26.8-54.2 34.9-83.2 7.5-29.5 11.2-59.5 11.2-89.5 0-30.6-3.7-60.6-11.2-89.6-8.1-29.5-19.9-57.4-34.9-83.7l-200.5-347c-15.1-26.3-26.3-54.2-33.8-83.2-7.5-29.5-11.8-59.5-11.3-89.6 0-30 3.8-60 11.8-89 7.5-29 19.3-57.4 34.3-83.1l10.8-18.3q2.6 14 6.4 27.4 3.8 13.4 9.1 26.3 4.8 12.8 10.7 25.7 5.9 12.9 12.9 24.7l116.9 201.7 182.9 316.4q6.9 11.8 12.8 24.7 5.9 12.4 10.8 25.8 4.8 12.8 8.5 26.2 4.3 13.5 7 27.4l10.7-18.2c15.1-26.3 26.3-54.2 34.4-83.7 7.5-29 11.8-59 11.8-89.1 0-30.5-4.3-60.6-11.8-89.5-8.1-29.5-19.3-57.4-34.4-83.7l-200-346c-15-26.3-26.3-54.2-34.3-83.7-7.5-28.9-11.8-59-11.8-89.5 0-30.1 4.3-60.1 11.8-89.6 8-29 19.3-56.9 34.3-83.2l10.7-18.2q2.7 13.9 6.5 27.4 4.3 13.4 9.1 26.2 4.8 12.9 10.7 25.8 5.9 12.3 12.9 24.7l249.9 431.8q10.2 18.2 18.2 37.5 8.1 19.3 14 39.2 5.9 19.8 9.1 40.2 3.2 20.9 4.3 41.3c267.5 70.3 452.5 217.8 453.6 390z"/>
</svg>