<?xml version="1.0" encoding="UTF-8" standalone="no"?><svg xmlns="http://www.w3.org/2000/svg" xmlns:xlink="http://www.w3.org/1999/xlink" fill="#000000" height="103" preserveAspectRatio="xMidYMid meet" version="1" viewBox="5.0 -2.6 89.9 103.0" width="89.9" zoomAndPan="magnify"><g id="change1_1"><path d="M 85.042969 53.6875 C 90.367188 51.886719 93.015625 50.183594 94.96875 53.21875 C 94.296875 54.355469 93.28125 54.882812 92.085938 55.320312 C 80.660156 59.488281 71.890625 59.402344 59.761719 60.21875 C 58.9375 64.074219 59.945312 70.035156 58.691406 99.714844 C 57.257812 100.410156 56.492188 99.703125 55.71875 99.039062 C 55.058594 98.476562 54.921875 97.742188 54.964844 96.90625 C 54.972656 96.773438 55.554688 85.101562 55.316406 81.746094 C 55.015625 77.589844 55.730469 69.757812 55.535156 61.554688 C 55.5 60.050781 55.105469 59.910156 52.847656 60.003906 C 52.109375 61.320312 52.1875 59.988281 52.121094 91.558594 C 52.109375 96.824219 52.929688 98.382812 49.601562 98.613281 C 48.417969 98.699219 47.246094 98.046875 46.074219 98.613281 C 44.90625 97.140625 43.644531 98.71875 41.789062 97.347656 C 38.34375 94.804688 36.355469 93.550781 36.121094 91.058594 C 34.398438 72.679688 34.84375 77.8125 34.84375 58.128906 C 34.84375 58.027344 34.75 57.925781 34.554688 57.527344 C 21.398438 53.527344 12.933594 56.789062 7.1875 50.839844 C 6.347656 49.972656 5.671875 48.949219 5.03125 48.136719 C 5.960938 42.632812 13.398438 45.984375 35.101562 45.984375 C 36.84375 39.992188 35.15625 40.085938 36.542969 31.757812 C 37.121094 28.289062 37.089844 23.003906 37.195312 22.34375 C 38.632812 13.457031 38.183594 7.570312 42.96875 1.234375 C 45.847656 -2.582031 54.304688 3.347656 51.867188 6.769531 C 50.546875 8.621094 52.105469 41.363281 52.363281 44.675781 C 56.945312 45.300781 54.632812 43.863281 53.824219 24.789062 C 53.570312 18.722656 53.660156 12.648438 53.621094 6.574219 C 53.621094 6.414062 53.851562 6.253906 54 6.058594 C 55.757812 6.136719 55.074219 7.355469 56.070312 18.792969 C 56.402344 22.597656 56.878906 26.390625 57.222656 30.195312 C 58.425781 43.503906 57.445312 41.335938 59.199219 44.488281 C 74.425781 43.394531 76.398438 39.40625 80.46875 42.242188 C 80.835938 42.496094 81.25 42.8125 81.664062 42.84375 C 85.03125 43.117188 86.339844 45.921875 88.117188 48.097656 C 89.144531 49.351562 88.808594 50.496094 87.464844 51.554688 C 86.628906 52.21875 85.234375 52.265625 85.074219 53.683594 C 84.273438 53.515625 84.507812 53.511719 84.101562 53.765625 C 84.207031 53.742188 84.308594 53.707031 84.414062 53.703125 C 84.621094 53.6875 84.832031 53.691406 85.042969 53.6875" fill="#ffffff"/></g></svg>