<?xml version="1.0" encoding="UTF-8" standalone="no"?><svg xmlns="http://www.w3.org/2000/svg" xmlns:xlink="http://www.w3.org/1999/xlink" fill="#ffffff" height="336.3" preserveAspectRatio="xMidYMid meet" version="1" viewBox="54.9 87.7 402.3 336.3" width="402.3" zoomAndPan="magnify"><g id="change1_1"><path d="M7.553,24.895l24,12c0.14,0.07 0.294,0.105 0.447,0.105c0.153,0 0.307,-0.035 0.447,-0.105l24,-12c0.339,-0.17 0.553,-0.516 0.553,-0.895c0,-0.379 -0.214,-0.725 -0.553,-0.895l-24,-12c-0.281,-0.141 -0.613,-0.141 -0.895,0l-24,12c-0.338,0.17 -0.552,0.516 -0.552,0.895c0,0.379 0.214,0.725 0.553,0.895Z" fill="inherit" transform="scale(8)"/><path d="M55.553,31.105l-23.553,11.777l-23.553,-11.777c-0.495,-0.248 -1.095,-0.046 -1.342,0.447c-0.247,0.494 -0.047,1.095 0.447,1.342l24,12c0.141,0.071 0.295,0.106 0.448,0.106c0.153,0 0.307,-0.035 0.447,-0.105l24,-12c0.494,-0.247 0.694,-0.848 0.447,-1.342c-0.248,-0.494 -0.847,-0.694 -1.341,-0.448Z" fill="inherit" transform="scale(8)"/><path d="M55.553,39.105l-23.553,11.777l-23.553,-11.777c-0.495,-0.246 -1.095,-0.046 -1.342,0.447c-0.247,0.494 -0.047,1.095 0.447,1.342l24,12c0.141,0.071 0.295,0.106 0.448,0.106c0.153,0 0.307,-0.035 0.447,-0.105l24,-12c0.494,-0.247 0.694,-0.848 0.447,-1.342c-0.248,-0.494 -0.847,-0.694 -1.341,-0.448Z" fill="inherit" transform="scale(8)"/></g></svg>